<svg xmlns="http://www.w3.org/2000/svg" width="29.06" height="29.646" viewBox="0 0 29.06 29.646">
  <g id="google" transform="translate(-232 -772)">
    <g id="Google__G__Logo" transform="translate(232.05 772.018)">
      <path id="Path_26485" data-name="Path 26485" d="M286.337,226.112a17.436,17.436,0,0,0-.256-3.012H272.1v5.708h8.006a6.861,6.861,0,0,1-2.963,4.5v3.7h4.777A14.476,14.476,0,0,0,286.337,226.112Z" transform="translate(-257.327 -210.966)" fill="#8a8eb3"/>
      <path id="Path_26486" data-name="Path 26486" d="M42.146,336.282a14.189,14.189,0,0,0,9.826-3.578L47.195,329a8.99,8.99,0,0,1-13.366-4.7H28.9v3.818A14.825,14.825,0,0,0,42.146,336.282Z" transform="translate(-27.373 -306.654)" fill="#8a8eb3"/>
      <path id="Path_26487" data-name="Path 26487" d="M6.45,159.493a8.879,8.879,0,0,1,0-5.675V150H1.527a14.835,14.835,0,0,0,0,13.311Z" transform="translate(0 -141.848)" fill="#8a8eb3"/>
      <path id="Path_26488" data-name="Path 26488" d="M42.146,5.849a8.055,8.055,0,0,1,5.686,2.222h0l4.232-4.232A14.246,14.246,0,0,0,42.146-.017,14.82,14.82,0,0,0,28.9,8.152l4.924,3.818A8.866,8.866,0,0,1,42.146,5.849Z" transform="translate(-27.373 0)" fill="#8a8eb3"/>
    </g>
  </g>
</svg>
