<svg width="12" height="12" viewBox="0 0 12 12" fill="none" xmlns="http://www.w3.org/2000/svg">
<path d="M10.26 4.58018C10.6013 4.24594 10.8 3.78935 10.8 3.3C10.8 2.30752 9.99258 1.5 9 1.5C8.67206 1.5 8.34942 1.59014 8.0666 1.76074C7.97208 1.81788 7.94161 1.94072 7.99863 2.03536C8.05566 2.13 8.1787 2.16016 8.27325 2.10333C8.49375 1.97032 8.74493 1.90001 9 1.90001C9.77187 1.90001 10.4 2.52804 10.4 3.3C10.4 3.77538 10.1619 4.21357 9.7623 4.47274C9.42675 4.69287 9.00136 4.75634 8.61288 4.64569C8.50781 4.61541 8.39609 4.67674 8.36562 4.78298C8.33534 4.88923 8.39686 4.99987 8.50312 5.03025C8.66484 5.07654 8.83202 5.09998 9 5.09998C9.31448 5.09998 9.61847 5.0142 9.88835 4.85927C10.9151 5.2313 11.6 6.20065 11.6 7.29998V8.29999H9.77627C9.63462 6.96415 8.79419 5.79518 7.56834 5.24011C7.95844 4.84294 8.19998 4.29938 8.19998 3.70001C8.20001 2.48691 7.21308 1.5 6 1.5C4.78692 1.5 3.79999 2.48691 3.79999 3.70001C3.79999 4.29956 4.04168 4.84329 4.43198 5.24051C4.01944 5.42794 3.63682 5.69016 3.3123 6.01282C2.6902 6.6367 2.31164 7.43745 2.22178 8.30004H0.400008V7.30003C0.400008 6.60745 0.670523 5.95444 1.16095 5.46195C1.43093 5.19368 1.75962 4.98902 2.11352 4.8604C2.38345 5.01469 2.68652 5.1 3 5.1C3.16798 5.1 3.33516 5.07656 3.49687 5.03027C3.60312 4.9999 3.66464 4.88925 3.63438 4.78301C3.60391 4.67677 3.49219 4.61552 3.38712 4.64571C2.99883 4.75655 2.57365 4.69317 2.23673 4.47227C1.83811 4.21357 1.60001 3.77541 1.60001 3.3C1.60001 2.52804 2.22813 1.90001 3 1.90001C3.25507 1.90001 3.50625 1.97032 3.72675 2.10333C3.82167 2.16016 3.94413 2.1297 4.00137 2.03536C4.05839 1.94074 4.02792 1.81788 3.9334 1.76074C3.65058 1.59014 3.32794 1.5 3 1.5C2.00742 1.5 1.2 2.30752 1.2 3.3C1.2 3.78898 1.3984 4.24521 1.73869 4.57915C1.42151 4.72659 1.12856 4.93015 0.878133 5.17891C0.311906 5.74765 0 6.50088 0 7.30001V8.50001C0 8.61047 0.0894609 8.7 0.199992 8.7H2.19998V10.3C2.19998 10.4105 2.28945 10.5 2.39998 10.5H9.59998C9.71053 10.5 9.79997 10.4104 9.79997 10.3V8.7H11.8C11.9105 8.7 12 8.61045 12 8.50001V7.30001C12 6.11747 11.3128 5.0655 10.26 4.58018ZM4.2 3.70001C4.2 2.70752 5.00742 1.90001 6 1.90001C6.99258 1.90001 7.8 2.70752 7.8 3.70001C7.8 4.69249 6.99258 5.50001 6 5.50001C5.00742 5.50001 4.2 4.69247 4.2 3.70001ZM9.40001 10.1H2.59999V8.7C2.59999 7.79316 2.9535 6.93916 3.59491 6.2958C3.93281 5.95971 4.34245 5.69902 4.78165 5.53036C5.13075 5.76349 5.54962 5.89999 6 5.89999C6.45112 5.89999 6.87073 5.76309 7.22016 5.52926C8.52745 6.03155 9.40001 7.29188 9.40001 8.7V10.1Z" fill="#989898"/>
</svg>
